# xmcd
#
# Track frame offsets: 
#        150
#        17287
#        37445
#        57472
#        70752
#        84165
#        102357
#        117925
#        138380
#        149947
#        169382
#        183470
#        196960
#
# Disc length: 2898 seconds
#
# Revision: 1
# Processed by: cddbd v1.5.2PL0 Copyright (c) Steve Scherf et al.
# Submitted via: ExactAudioCopyFreeDBPlugin 1.0
#
DISCID=c20b500d
DTITLE=Joe T. Cook - Longshot
DYEAR=2000
DGENRE=Blues
TTITLE0=I'm Leaving You
TTITLE1=Longshot
TTITLE2=Little Baby
TTITLE3=I Got A Goodun
TTITLE4=Short Burning Fuse
TTITLE5=Got To Be With You Tonight
TTITLE6=Soo Line Sally
TTITLE7=Easy Street
TTITLE8=Love Shacking
TTITLE9=Honey Wine
TTITLE10=Think
TTITLE11=Somebody Pinch Me
TTITLE12=Heart Of Darkness
EXTD=
EXTT0=
EXTT1=
EXTT2=
EXTT3=
EXTT4=
EXTT5=
EXTT6=
EXTT7=
EXTT8=
EXTT9=
EXTT10=
EXTT11=
EXTT12=
PLAYORDER=
